<svg width="1600" height="880" viewBox="0 0 1600 880" fill="none" xmlns="http://www.w3.org/2000/svg">
<defs>
  <linearGradient id="bg" x1="0" y1="0" x2="1600" y2="880" gradientUnits="userSpaceOnUse">
    <stop stop-color="#061430"/>
    <stop offset="0.55" stop-color="#0E2468"/>
    <stop offset="1" stop-color="#26115F"/>
  </linearGradient>
  <linearGradient id="beam" x1="930" y1="150" x2="1460" y2="560" gradientUnits="userSpaceOnUse">
    <stop stop-color="#8CE5FF" stop-opacity="0.92"/>
    <stop offset="1" stop-color="#D987FF" stop-opacity="0.62"/>
  </linearGradient>
  <linearGradient id="phoneStroke" x1="1120" y1="90" x2="1525" y2="770" gradientUnits="userSpaceOnUse">
    <stop stop-color="#D8E3F8" stop-opacity="0.75"/>
    <stop offset="1" stop-color="#7F8FBF" stop-opacity="0.78"/>
  </linearGradient>
  <filter id="blurBig" x="0" y="0" width="1600" height="880" filterUnits="userSpaceOnUse">
    <feGaussianBlur stdDeviation="28"/>
  </filter>
  <filter id="glow" x="910" y="130" width="520" height="470" filterUnits="userSpaceOnUse">
    <feGaussianBlur stdDeviation="22"/>
  </filter>
</defs>
<rect width="1600" height="880" rx="34" fill="url(#bg)"/>
<circle cx="220" cy="180" r="190" fill="#56A6FF" fill-opacity="0.18" filter="url(#blurBig)"/>
<circle cx="1380" cy="80" r="180" fill="#C15EFF" fill-opacity="0.16" filter="url(#blurBig)"/>
<circle cx="1290" cy="640" r="220" fill="#64C5FF" fill-opacity="0.12" filter="url(#blurBig)"/>

<g opacity="0.22">
  <path d="M100 860L560 20" stroke="white" stroke-width="2"/>
  <path d="M230 860L690 20" stroke="white" stroke-width="2"/>
  <path d="M360 860L820 20" stroke="white" stroke-width="2"/>
  <path d="M490 860L950 20" stroke="white" stroke-width="2"/>
  <path d="M620 860L1080 20" stroke="white" stroke-width="2"/>
  <path d="M750 860L1210 20" stroke="white" stroke-width="2"/>
</g>

<g opacity="0.28">
  <path d="M820 118C980 152 1100 204 1240 332" stroke="url(#beam)" stroke-width="10" stroke-linecap="round"/>
  <path d="M760 180C960 240 1080 320 1206 460" stroke="url(#beam)" stroke-width="16" stroke-linecap="round"/>
  <path d="M700 244C900 330 1040 430 1168 560" stroke="url(#beam)" stroke-width="12" stroke-linecap="round"/>
</g>

<g opacity="0.22" font-family="Pretendard, Arial, sans-serif" font-size="28" fill="#8BB7FF">
  <text x="760" y="128">0101010010010101</text>
  <text x="864" y="194">0010101011010010</text>
  <text x="980" y="258">0100110100100101</text>
</g>

<g opacity="0.78">
  <rect x="1105" y="74" width="350" height="660" rx="46" transform="rotate(14 1105 74)" fill="#7FA0D9" fill-opacity="0.16" stroke="url(#phoneStroke)" stroke-width="10"/>
  <rect x="1152" y="138" width="255" height="520" rx="26" transform="rotate(14 1152 138)" fill="#C4D9FF" fill-opacity="0.08"/>
  <circle cx="1412" cy="177" r="6" fill="#EEF5FF" fill-opacity="0.82"/>
  <circle cx="1358" cy="580" r="6" fill="#EEF5FF" fill-opacity="0.74"/>
  <circle cx="1272" cy="420" r="6" fill="#EEF5FF" fill-opacity="0.74"/>
</g>

<g opacity="0.92">
  <rect x="954" y="186" width="428" height="288" rx="44" fill="#12336E" fill-opacity="0.34" stroke="#72CFFF" stroke-opacity="0.16"/>
  <circle cx="1050" cy="392" r="10" fill="#E8F7FF"/>
  <circle cx="1140" cy="350" r="10" fill="#E8F7FF"/>
  <circle cx="1240" cy="300" r="10" fill="#E8F7FF"/>
  <circle cx="1330" cy="364" r="10" fill="#E8F7FF"/>
  <path d="M1050 392L1140 350L1240 300L1330 364" stroke="#E8F7FF" stroke-width="6" stroke-linecap="round" stroke-linejoin="round"/>
</g>

<g opacity="0.48">
  <path d="M0 650H1600" stroke="#98A9E8" stroke-opacity="0.24" stroke-width="2"/>
  <rect x="0" y="640" width="84" height="240" fill="#091A46"/>
  <rect x="100" y="540" width="62" height="340" fill="#0B1F52"/>
  <rect x="172" y="594" width="94" height="286" fill="#0A224F"/>
  <rect x="282" y="506" width="74" height="374" fill="#0C285E"/>
  <rect x="366" y="584" width="116" height="296" fill="#0B1E4D"/>
  <rect x="500" y="470" width="62" height="410" fill="#0D2B67"/>
  <rect x="575" y="530" width="90" height="350" fill="#0B2458"/>
  <rect x="682" y="448" width="78" height="432" fill="#0C2C69"/>
  <rect x="772" y="596" width="120" height="284" fill="#091C4B"/>
  <rect x="904" y="520" width="84" height="360" fill="#0C235B"/>
  <rect x="1002" y="440" width="72" height="440" fill="#0D2D70"/>
  <rect x="1088" y="562" width="106" height="318" fill="#0C255D"/>
  <rect x="1206" y="474" width="70" height="406" fill="#0D2A68"/>
  <rect x="1290" y="604" width="102" height="276" fill="#0A204F"/>
  <rect x="1406" y="532" width="62" height="348" fill="#0D245C"/>
  <rect x="1482" y="580" width="118" height="300" fill="#091A46"/>
  <circle cx="287" cy="612" r="9" fill="#9BD9FF" fill-opacity="0.55"/>
  <circle cx="525" cy="538" r="8" fill="#9BD9FF" fill-opacity="0.42"/>
  <circle cx="717" cy="500" r="8" fill="#9BD9FF" fill-opacity="0.46"/>
  <circle cx="1016" cy="496" r="9" fill="#9BD9FF" fill-opacity="0.44"/>
  <circle cx="1220" cy="530" r="9" fill="#9BD9FF" fill-opacity="0.40"/>
</g>

<rect x="0" y="0" width="1600" height="880" rx="34" fill="url(#bg)" fill-opacity="0.10"/>
</svg>
